<svg width="16" height="16" xmlns="http://www.w3.org/2000/svg">
  <defs>
    <pattern id="leafPattern" patternUnits="userSpaceOnUse" width="4" height="4">
      <rect width="4" height="4" fill="#228B22"/>
      <ellipse cx="1" cy="1" rx="0.8" ry="0.5" fill="#32CD32" opacity="0.7"/>
      <ellipse cx="3" cy="3" rx="0.6" ry="0.8" fill="#90EE90" opacity="0.6"/>
    </pattern>
  </defs>
  
  <!-- Base leaves color -->
  <rect width="16" height="16" fill="#228B22"/>
  
  <!-- Leaf pattern overlay -->
  <rect width="16" height="16" fill="url(#leafPattern)"/>
  
  <!-- Individual leaf shapes -->
  <ellipse cx="2" cy="1" rx="1.5" ry="1" fill="#32CD32" opacity="0.8"/>
  <ellipse cx="6" cy="2" rx="1" ry="1.5" fill="#90EE90" opacity="0.7"/>
  <ellipse cx="10" cy="1" rx="1.2" ry="0.8" fill="#32CD32" opacity="0.6"/>
  <ellipse cx="14" cy="3" rx="1" ry="1.2" fill="#90EE90" opacity="0.8"/>
  
  <ellipse cx="1" cy="5" rx="1.3" ry="1" fill="#90EE90" opacity="0.7"/>
  <ellipse cx="4" cy="6" rx="1" ry="1.3" fill="#32CD32" opacity="0.6"/>
  <ellipse cx="8" cy="5" rx="1.5" ry="1" fill="#90EE90" opacity="0.8"/>
  <ellipse cx="12" cy="6" rx="1" ry="1.4" fill="#32CD32" opacity="0.7"/>
  <ellipse cx="15" cy="7" rx="1.2" ry="0.9" fill="#90EE90" opacity="0.6"/>
  
  <ellipse cx="2" cy="9" rx="1" ry="1.5" fill="#32CD32" opacity="0.8"/>
  <ellipse cx="6" cy="10" rx="1.4" ry="1" fill="#90EE90" opacity="0.7"/>
  <ellipse cx="10" cy="9" rx="1" ry="1.3" fill="#32CD32" opacity="0.6"/>
  <ellipse cx="14" cy="11" rx="1.3" ry="1" fill="#90EE90" opacity="0.8"/>
  
  <ellipse cx="1" cy="13" rx="1.2" ry="1.1" fill="#90EE90" opacity="0.7"/>
  <ellipse cx="5" cy="14" rx="1" ry="1.2" fill="#32CD32" opacity="0.6"/>
  <ellipse cx="9" cy="13" rx="1.5" ry="1" fill="#90EE90" opacity="0.8"/>
  <ellipse cx="13" cy="15" rx="1" ry="1.3" fill="#32CD32" opacity="0.7"/>
  
  <!-- Leaf veins and details -->
  <line x1="2" y1="0.5" x2="2" y2="1.5" stroke="#006400" stroke-width="0.2" opacity="0.6"/>
  <line x1="6" y1="1" x2="6" y2="3" stroke="#006400" stroke-width="0.2" opacity="0.5"/>
  <line x1="10" y1="0.5" x2="10" y2="1.5" stroke="#006400" stroke-width="0.2" opacity="0.7"/>
  <line x1="14" y1="2.5" x2="14" y2="3.5" stroke="#006400" stroke-width="0.2" opacity="0.6"/>
  
  <line x1="1" y1="4.5" x2="1" y2="5.5" stroke="#006400" stroke-width="0.2" opacity="0.5"/>
  <line x1="4" y1="5.5" x2="4" y2="6.5" stroke="#006400" stroke-width="0.2" opacity="0.7"/>
  <line x1="8" y1="4.5" x2="8" y2="5.5" stroke="#006400" stroke-width="0.2" opacity="0.6"/>
  <line x1="12" y1="5.5" x2="12" y2="6.5" stroke="#006400" stroke-width="0.2" opacity="0.5"/>
  
  <!-- Small gaps for transparency effect -->
  <rect x="3" y="4" width="1" height="1" fill="#228B22" opacity="0.3"/>
  <rect x="7" y="7" width="1" height="1" fill="#228B22" opacity="0.2"/>
  <rect x="11" y="3" width="1" height="1" fill="#228B22" opacity="0.4"/>
  <rect x="15" y="10" width="1" height="1" fill="#228B22" opacity="0.3"/>
  <rect x="0" y="12" width="1" height="1" fill="#228B22" opacity="0.2"/>
  <rect x="8" y="15" width="1" height="1" fill="#228B22" opacity="0.4"/>
  
  <!-- Darker areas for depth -->
  <ellipse cx="5" cy="3" rx="0.5" ry="0.3" fill="#006400" opacity="0.4"/>
  <ellipse cx="9" cy="7" rx="0.3" ry="0.5" fill="#006400" opacity="0.5"/>
  <ellipse cx="13" cy="9" rx="0.4" ry="0.4" fill="#006400" opacity="0.3"/>
  <ellipse cx="3" cy="12" rx="0.5" ry="0.3" fill="#006400" opacity="0.6"/>
  <ellipse cx="11" cy="14" rx="0.3" ry="0.4" fill="#006400" opacity="0.4"/>
</svg>