<svg width="16" height="16" xmlns="http://www.w3.org/2000/svg">
  <defs>
    <pattern id="sandPattern" patternUnits="userSpaceOnUse" width="2" height="2">
      <rect width="2" height="2" fill="#F4A460"/>
      <circle cx="0.5" cy="0.5" r="0.3" fill="#DEB887" opacity="0.7"/>
      <circle cx="1.5" cy="1.5" r="0.2" fill="#D2B48C" opacity="0.6"/>
      <circle cx="1" cy="0.2" r="0.1" fill="#CD853F" opacity="0.8"/>
      <circle cx="0.3" cy="1.7" r="0.15" fill="#BC8F8F" opacity="0.5"/>
    </pattern>
  </defs>
  
  <!-- Base sand color -->
  <rect width="16" height="16" fill="#F4A460"/>
  
  <!-- Sand grain pattern -->
  <rect width="16" height="16" fill="url(#sandPattern)"/>
  
  <!-- Individual sand grains -->
  <circle cx="1" cy="1" r="0.4" fill="#DEB887" opacity="0.8"/>
  <circle cx="3" cy="0.5" r="0.3" fill="#D2B48C" opacity="0.7"/>
  <circle cx="5" cy="1.5" r="0.2" fill="#CD853F" opacity="0.9"/>
  <circle cx="7" cy="0.8" r="0.35" fill="#DEB887" opacity="0.6"/>
  <circle cx="9" cy="1.2" r="0.25" fill="#BC8F8F" opacity="0.8"/>
  <circle cx="11" cy="0.3" r="0.4" fill="#D2B48C" opacity="0.7"/>
  <circle cx="13" cy="1.7" r="0.3" fill="#DEB887" opacity="0.6"/>
  <circle cx="15" cy="0.9" r="0.2" fill="#CD853F" opacity="0.8"/>
  
  <circle cx="0.5" cy="3" r="0.3" fill="#D2B48C" opacity="0.7"/>
  <circle cx="2.5" cy="2.8" r="0.4" fill="#DEB887" opacity="0.8"/>
  <circle cx="4.2" cy="3.5" r="0.25" fill="#BC8F8F" opacity="0.6"/>
  <circle cx="6.8" cy="2.3" r="0.35" fill="#CD853F" opacity="0.9"/>
  <circle cx="8.5" cy="3.7" r="0.2" fill="#D2B48C" opacity="0.7"/>
  <circle cx="10.3" cy="2.9" r="0.3" fill="#DEB887" opacity="0.8"/>
  <circle cx="12.7" cy="3.4" r="0.4" fill="#BC8F8F" opacity="0.5"/>
  <circle cx="14.5" cy="2.6" r="0.25" fill="#CD853F" opacity="0.8"/>
  
  <circle cx="1.2" cy="5" r="0.35" fill="#DEB887" opacity="0.7"/>
  <circle cx="3.8" cy="4.5" r="0.2" fill="#D2B48C" opacity="0.8"/>
  <circle cx="5.5" cy="5.3" r="0.4" fill="#BC8F8F" opacity="0.6"/>
  <circle cx="7.2" cy="4.8" r="0.3" fill="#CD853F" opacity="0.9"/>
  <circle cx="9.7" cy="5.6" r="0.25" fill="#DEB887" opacity="0.7"/>
  <circle cx="11.4" cy="4.2" r="0.35" fill="#D2B48C" opacity="0.8"/>
  <circle cx="13.1" cy="5.9" r="0.2" fill="#BC8F8F" opacity="0.6"/>
  <circle cx="15.3" cy="4.7" r="0.3" fill="#CD853F" opacity="0.8"/>
  
  <!-- Continue pattern for remaining rows -->
  <circle cx="0.8" cy="7" r="0.25" fill="#D2B48C" opacity="0.7"/>
  <circle cx="2.3" cy="6.5" r="0.4" fill="#DEB887" opacity="0.8"/>
  <circle cx="4.9" cy="7.3" r="0.3" fill="#BC8F8F" opacity="0.6"/>
  <circle cx="6.6" cy="6.8" r="0.2" fill="#CD853F" opacity="0.9"/>
  <circle cx="8.1" cy="7.6" r="0.35" fill="#DEB887" opacity="0.7"/>
  <circle cx="10.8" cy="6.2" r="0.25" fill="#D2B48C" opacity="0.8"/>
  <circle cx="12.5" cy="7.9" r="0.4" fill="#BC8F8F" opacity="0.5"/>
  <circle cx="14.2" cy="6.7" r="0.3" fill="#CD853F" opacity="0.8"/>
  
  <circle cx="1.5" cy="9" r="0.3" fill="#DEB887" opacity="0.8"/>
  <circle cx="3.2" cy="8.5" r="0.25" fill="#D2B48C" opacity="0.7"/>
  <circle cx="5.7" cy="9.3" r="0.4" fill="#BC8F8F" opacity="0.6"/>
  <circle cx="7.4" cy="8.8" r="0.2" fill="#CD853F" opacity="0.9"/>
  <circle cx="9.9" cy="9.6" r="0.35" fill="#DEB887" opacity="0.7"/>
  <circle cx="11.6" cy="8.2" r="0.3" fill="#D2B48C" opacity="0.8"/>
  <circle cx="13.3" cy="9.9" r="0.25" fill="#BC8F8F" opacity="0.6"/>
  <circle cx="15.1" cy="8.7" r="0.4" fill="#CD853F" opacity="0.8"/>
  
  <!-- Bottom rows -->
  <circle cx="0.3" cy="11" r="0.35" fill="#D2B48C" opacity="0.7"/>
  <circle cx="2.8" cy="10.5" r="0.2" fill="#DEB887" opacity="0.8"/>
  <circle cx="4.5" cy="11.3" r="0.3" fill="#BC8F8F" opacity="0.6"/>
  <circle cx="6.2" cy="10.8" r="0.4" fill="#CD853F" opacity="0.9"/>
  <circle cx="8.7" cy="11.6" r="0.25" fill="#DEB887" opacity="0.7"/>
  <circle cx="10.4" cy="10.2" r="0.35" fill="#D2B48C" opacity="0.8"/>
  <circle cx="12.9" cy="11.9" r="0.2" fill="#BC8F8F" opacity="0.6"/>
  <circle cx="14.6" cy="10.7" r="0.3" fill="#CD853F" opacity="0.8"/>
  
  <circle cx="1.7" cy="13" r="0.4" fill="#DEB887" opacity="0.8"/>
  <circle cx="3.4" cy="12.5" r="0.25" fill="#D2B48C" opacity="0.7"/>
  <circle cx="5.1" cy="13.3" r="0.3" fill="#BC8F8F" opacity="0.6"/>
  <circle cx="7.8" cy="12.8" r="0.35" fill="#CD853F" opacity="0.9"/>
  <circle cx="9.5" cy="13.6" r="0.2" fill="#DEB887" opacity="0.7"/>
  <circle cx="11.2" cy="12.2" r="0.4" fill="#D2B48C" opacity="0.8"/>
  <circle cx="13.7" cy="13.9" r="0.25" fill="#BC8F8F" opacity="0.6"/>
  <circle cx="15.4" cy="12.7" r="0.3" fill="#CD853F" opacity="0.8"/>
  
  <circle cx="0.6" cy="15" r="0.3" fill="#D2B48C" opacity="0.7"/>
  <circle cx="2.1" cy="14.5" r="0.35" fill="#DEB887" opacity="0.8"/>
  <circle cx="4.8" cy="15.3" r="0.2" fill="#BC8F8F" opacity="0.6"/>
  <circle cx="6.5" cy="14.8" r="0.4" fill="#CD853F" opacity="0.9"/>
  <circle cx="8.2" cy="15.6" r="0.25" fill="#DEB887" opacity="0.7"/>
  <circle cx="10.9" cy="14.2" r="0.3" fill="#D2B48C" opacity="0.8"/>
  <circle cx="12.6" cy="15.9" r="0.35" fill="#BC8F8F" opacity="0.6"/>
  <circle cx="14.3" cy="14.7" r="0.2" fill="#CD853F" opacity="0.8"/>
</svg>