<svg width="16" height="16" xmlns="http://www.w3.org/2000/svg">
  <defs>
    <linearGradient id="woodGrain" x1="0%" y1="0%" x2="100%" y2="0%">
      <stop offset="0%" style="stop-color:#8B4513;stop-opacity:1" />
      <stop offset="20%" style="stop-color:#A0522D;stop-opacity:1" />
      <stop offset="40%" style="stop-color:#8B4513;stop-opacity:1" />
      <stop offset="60%" style="stop-color:#CD853F;stop-opacity:1" />
      <stop offset="80%" style="stop-color:#8B4513;stop-opacity:1" />
      <stop offset="100%" style="stop-color:#A0522D;stop-opacity:1" />
    </linearGradient>
  </defs>
  
  <!-- Base wood color -->
  <rect width="16" height="16" fill="#8B4513"/>
  
  <!-- Wood grain pattern -->
  <rect width="16" height="16" fill="url(#woodGrain)"/>
  
  <!-- Vertical wood grain lines -->
  <rect x="2" y="0" width="1" height="16" fill="#654321" opacity="0.6"/>
  <rect x="5" y="0" width="1" height="16" fill="#A0522D" opacity="0.4"/>
  <rect x="8" y="0" width="1" height="16" fill="#654321" opacity="0.7"/>
  <rect x="11" y="0" width="1" height="16" fill="#A0522D" opacity="0.5"/>
  <rect x="14" y="0" width="1" height="16" fill="#654321" opacity="0.6"/>
  
  <!-- Wood knots and imperfections -->
  <ellipse cx="4" cy="3" rx="1.5" ry="1" fill="#654321" opacity="0.8"/>
  <ellipse cx="12" cy="7" rx="1" ry="1.5" fill="#654321" opacity="0.7"/>
  <ellipse cx="7" cy="12" rx="1.5" ry="1" fill="#654321" opacity="0.6"/>
  
  <!-- Inner knot details -->
  <ellipse cx="4" cy="3" rx="0.5" ry="0.3" fill="#2F1B14" opacity="0.9"/>
  <ellipse cx="12" cy="7" rx="0.3" ry="0.5" fill="#2F1B14" opacity="0.8"/>
  <ellipse cx="7" cy="12" rx="0.5" ry="0.3" fill="#2F1B14" opacity="0.7"/>
  
  <!-- Additional grain details -->
  <rect x="1" y="1" width="1" height="2" fill="#A0522D" opacity="0.5"/>
  <rect x="3" y="5" width="1" height="3" fill="#CD853F" opacity="0.4"/>
  <rect x="6" y="2" width="1" height="1" fill="#A0522D" opacity="0.6"/>
  <rect x="9" y="9" width="1" height="2" fill="#CD853F" opacity="0.5"/>
  <rect x="13" y="4" width="1" height="1" fill="#A0522D" opacity="0.4"/>
  <rect x="15" y="11" width="1" height="3" fill="#CD853F" opacity="0.6"/>
  
  <!-- Horizontal grain variations -->
  <rect x="0" y="6" width="16" height="1" fill="#654321" opacity="0.3"/>
  <rect x="0" y="10" width="16" height="1" fill="#A0522D" opacity="0.2"/>
  <rect x="0" y="14" width="16" height="1" fill="#654321" opacity="0.4"/>
  
  <!-- Small imperfections -->
  <rect x="10" y="1" width="1" height="1" fill="#2F1B14" opacity="0.6"/>
  <rect x="1" y="8" width="1" height="1" fill="#2F1B14" opacity="0.5"/>
  <rect x="15" y="13" width="1" height="1" fill="#2F1B14" opacity="0.7"/>
  <rect x="5" y="15" width="1" height="1" fill="#2F1B14" opacity="0.4"/>
</svg>